<svg width="1290" height="1290" viewBox="0 0 1290 1290" fill="none" xmlns="http://www.w3.org/2000/svg">
<g clip-path="url(#clip0_87_527)">
<path d="M1256.83 1015.5C1267.13 1005.2 1267.13 988.503 1256.83 978.202C1246.53 967.901 1229.83 967.901 1219.53 978.202L1256.83 1015.5ZM990.349 1244.68L971.698 1226.03H971.698L990.349 1244.68ZM45.0133 306.522L63.8881 324.948H63.8881L45.0133 306.522ZM943.721 1237.62H92.2005V1290.37H943.721V1237.62ZM52.6346 1198.05V352.586H-0.119934V1198.05H52.6346ZM1219.53 978.202L971.698 1226.03L1009 1263.33L1256.83 1015.5L1219.53 978.202ZM63.8881 324.948L312.276 70.5012L274.526 33.6502L26.1384 288.097L63.8881 324.948ZM92.2005 1237.62C70.3488 1237.62 52.6346 1219.91 52.6346 1198.05H-0.119934C-0.119934 1249.04 41.2134 1290.37 92.2005 1290.37V1237.62ZM943.721 1290.37C968.205 1290.37 991.687 1280.65 1009 1263.33L971.698 1226.03C964.278 1233.45 954.214 1237.62 943.721 1237.62V1290.37ZM52.6346 352.586C52.6346 342.257 56.6733 332.338 63.8881 324.948L26.1384 288.097C9.30384 305.342 -0.119934 328.486 -0.119934 352.586H52.6346Z" fill="white"/>
<path d="M1198.3 983.51H346.318V1036.26H1198.3V983.51ZM306.752 943.944V91.9584H253.998V943.944H306.752ZM1237.87 91.9583V943.944H1290.62V91.9583H1237.87ZM346.318 52.3924H1198.3V-0.362122H346.318V52.3924ZM1290.62 91.9583C1290.62 40.9711 1249.29 -0.362122 1198.3 -0.362122V52.3924C1220.16 52.3924 1237.87 70.1067 1237.87 91.9583H1290.62ZM346.318 983.51C324.467 983.51 306.752 965.795 306.752 943.944H253.998C253.998 994.931 295.331 1036.26 346.318 1036.26V983.51ZM1198.3 1036.26C1249.29 1036.26 1290.62 994.931 1290.62 943.944H1237.87C1237.87 965.795 1220.16 983.51 1198.3 983.51V1036.26ZM306.752 91.9584C306.752 70.1067 324.467 52.3924 346.318 52.3924V-0.362122C295.331 -0.362122 253.998 40.9713 253.998 91.9584H306.752Z" fill="white"/>
<path d="M795.781 360.435L749.928 676.309" stroke="white" stroke-width="81.8026" stroke-linecap="round" stroke-linejoin="round"/>
<path d="M618.992 413.942L519.645 520.931L618.992 622.826" stroke="white" stroke-width="81.8026" stroke-linecap="round" stroke-linejoin="round"/>
<path d="M926.735 416.48L1026.08 523.47L926.735 625.364" stroke="white" stroke-width="81.8026" stroke-linecap="round" stroke-linejoin="round"/>
<path d="M273.855 84.6553L23 328.994C24.086 574.419 26.2579 1084.16 26.2579 1159.75C26.2579 1235.33 65.3521 1260.74 84.8992 1264H971.036L1212.12 1013.14H368.333C292.75 1013.14 273.855 963.19 273.855 938.213V84.6553Z" fill="white" stroke="white" stroke-width="6.51571"/>
</g>
<defs>
<clipPath id="clip0_87_527">
<rect width="1290" height="1290" fill="white"/>
</clipPath>
</defs>
</svg>
