<svg width="548" height="548" viewBox="0 0 548 548" fill="none" xmlns="http://www.w3.org/2000/svg">
<path d="M527.722 427.136C531.984 422.874 531.984 415.964 527.722 411.702C523.46 407.44 516.55 407.44 512.288 411.702L527.722 427.136ZM26.3162 133.785L18.5064 126.161H18.5064L26.3162 133.785ZM398.169 519.04H45.8405V540.868H398.169V519.04ZM29.4696 502.669V152.845H7.64171V502.669H29.4696ZM512.288 411.702L409.745 514.245L425.179 529.679L527.722 427.136L512.288 411.702ZM34.1259 141.409L136.9 36.1282L121.28 20.8806L18.5064 126.161L34.1259 141.409ZM45.8405 519.04C36.7991 519.04 29.4696 511.71 29.4696 502.669H7.64171C7.64171 523.765 24.7439 540.868 45.8405 540.868V519.04ZM398.169 540.868C408.3 540.868 418.016 536.843 425.179 529.679L409.745 514.245C406.674 517.315 402.51 519.04 398.169 519.04V540.868ZM29.4696 152.845C29.4696 148.571 31.1407 144.467 34.1259 141.409L18.5064 126.161C11.5409 133.297 7.64171 142.873 7.64171 152.845H29.4696Z" fill="black"/>
<path d="M150.986 424.812H503.507C518.576 424.812 530.792 412.596 530.792 397.527V45.0066C530.792 29.9375 518.576 17.7217 503.507 17.7217H150.986C135.917 17.7217 123.701 29.9375 123.701 45.0065V397.527C123.701 412.596 135.917 424.812 150.986 424.812Z" fill="white"/>
<path d="M503.507 413.898H150.986V435.726H503.507V413.898ZM134.615 397.527V45.0065H112.787V397.527H134.615ZM519.878 45.0066V397.527H541.706V45.0066H519.878ZM150.986 28.6356H503.507V6.80773H150.986V28.6356ZM541.706 45.0066C541.706 23.9099 524.603 6.80773 503.507 6.80773V28.6356C512.548 28.6356 519.878 35.9651 519.878 45.0066H541.706ZM150.986 413.898C141.945 413.898 134.615 406.569 134.615 397.527H112.787C112.787 418.624 129.889 435.726 150.986 435.726V413.898ZM503.507 435.726C524.603 435.726 541.706 418.624 541.706 397.527H519.878C519.878 406.569 512.548 413.898 503.507 413.898V435.726ZM134.615 45.0065C134.615 35.9651 141.945 28.6356 150.986 28.6356V6.80773C129.889 6.80773 112.787 23.9099 112.787 45.0065H134.615Z" fill="black"/>
<path d="M121.003 41.9858L17.208 143.084C17.6573 244.632 18.556 455.547 18.556 486.82C18.556 518.093 34.7318 528.607 42.8197 529.955H409.471L509.221 426.161H160.094C128.821 426.161 121.003 405.492 121.003 395.157V41.9858Z" fill="black" stroke="black" stroke-width="2.69596"/>
<path d="M185.879 280.7C196.506 292.169 211.414 298.716 227.051 298.777L381.28 299.054L409.705 298.613C424.514 298.689 439.088 294.89 451.977 287.589C467.185 277.442 477.625 261.56 480.905 243.573C484.185 225.586 480.024 207.041 469.377 192.18C458.728 177.319 442.504 167.415 424.419 164.735C418.001 163.839 411.491 163.839 405.074 164.735C402.087 165.139 399.183 163.554 397.909 160.823C388.023 139.778 369.613 123.961 347.318 117.355C325.024 110.751 300.97 113.989 281.217 126.252C261.461 138.516 247.889 158.635 243.915 181.545C243.191 185.174 239.749 187.598 236.09 187.057C228.758 185.895 221.268 186.176 214.044 187.884C194.665 192.574 179.215 207.162 173.426 226.241C167.636 245.318 172.375 266.035 185.879 280.7Z" stroke="black" stroke-width="20.3464"/>
<path d="M327.946 233.482L391.514 233.482C393.834 233.262 395.606 231.315 395.606 228.984C395.606 226.653 393.834 224.705 391.514 224.486L390.753 224.486L390.753 215.051C390.534 212.731 388.586 210.957 386.255 210.957C383.924 210.957 381.977 212.731 381.757 215.051L381.757 224.486L364.285 224.486L364.285 215.051C364.405 213.784 363.986 212.526 363.129 211.585C362.274 210.644 361.06 210.109 359.788 210.109C358.517 210.109 357.303 210.644 356.446 211.585C355.589 212.526 355.17 213.784 355.29 215.051L355.29 224.486L327.941 224.486L327.943 224.486C326.976 216.923 323.531 209.894 318.148 204.495C311.62 198.045 302.813 194.427 293.637 194.427C284.461 194.427 275.656 198.045 269.129 204.495C261.219 212.395 257.609 223.627 259.437 234.656C261.263 245.685 268.302 255.152 278.339 260.078C288.374 265.003 300.17 264.782 310.013 259.481C319.855 254.179 326.532 244.452 327.942 233.362L327.946 233.482ZM275.65 247.115L275.648 247.117C270.847 242.308 268.15 235.79 268.152 228.995C268.155 222.2 270.856 215.683 275.663 210.878C280.468 206.075 286.986 203.376 293.781 203.376C300.576 203.376 307.093 206.075 311.899 210.878C316.704 215.683 319.407 222.2 319.408 228.995C319.412 235.79 316.715 242.308 311.912 247.117C307.111 251.909 300.585 254.574 293.801 254.513C287.006 254.529 280.478 251.857 275.648 247.076L275.65 247.115Z" fill="black" stroke="black" stroke-width="7"/>
</svg>
