<svg width="548" height="548" viewBox="0 0 548 548" fill="none" xmlns="http://www.w3.org/2000/svg">
<path d="M527.722 427.138C531.984 422.876 531.984 415.965 527.722 411.703C523.46 407.441 516.55 407.441 512.288 411.703L527.722 427.138ZM26.3162 133.787L18.5064 126.163H18.5064L26.3162 133.787ZM398.169 519.041H45.8405V540.869H398.169V519.041ZM29.4696 502.67V152.846H7.64171V502.67H29.4696ZM512.288 411.703L409.745 514.246L425.179 529.681L527.722 427.138L512.288 411.703ZM34.1259 141.41L136.9 36.1297L121.28 20.8821L18.5064 126.163L34.1259 141.41ZM45.8405 519.041C36.7991 519.041 29.4696 511.712 29.4696 502.67H7.64171C7.64171 523.767 24.7439 540.869 45.8405 540.869V519.041ZM398.169 540.869C408.3 540.869 418.016 536.845 425.179 529.681L409.745 514.246C406.674 517.316 402.51 519.041 398.169 519.041V540.869ZM29.4696 152.846C29.4696 148.572 31.1407 144.468 34.1259 141.41L18.5064 126.163C11.5409 133.298 7.64171 142.874 7.64171 152.846H29.4696Z" fill="black"/>
<path d="M150.986 424.813H503.507C518.576 424.813 530.792 412.597 530.792 397.528V45.0075C530.792 29.9385 518.576 17.7227 503.507 17.7227H150.986C135.917 17.7227 123.701 29.9385 123.701 45.0075V397.528C123.701 412.597 135.917 424.813 150.986 424.813Z" fill="white"/>
<path d="M503.507 413.899H150.986V435.727H503.507V413.899ZM134.615 397.528V45.0075H112.787V397.528H134.615ZM519.878 45.0075V397.528H541.706V45.0075H519.878ZM150.986 28.6366H503.507V6.8087H150.986V28.6366ZM541.706 45.0075C541.706 23.9109 524.603 6.8087 503.507 6.8087V28.6366C512.548 28.6366 519.878 35.9661 519.878 45.0075H541.706ZM150.986 413.899C141.945 413.899 134.615 406.57 134.615 397.528H112.787C112.787 418.625 129.889 435.727 150.986 435.727V413.899ZM503.507 435.727C524.603 435.727 541.706 418.625 541.706 397.528H519.878C519.878 406.57 512.548 413.899 503.507 413.899V435.727ZM134.615 45.0075C134.615 35.9661 141.945 28.6366 150.986 28.6366V6.8087C129.889 6.8087 112.787 23.9109 112.787 45.0075H134.615Z" fill="black"/>
<path d="M121.003 41.9863L17.208 143.085C17.6573 244.633 18.556 455.547 18.556 486.82C18.556 518.094 34.7318 528.608 42.8197 529.956H409.471L509.221 426.161H160.094C128.821 426.161 121.003 405.492 121.003 395.158V41.9863Z" fill="black" stroke="black" stroke-width="2.69596"/>
<path d="M327.28 65.4844C311.852 65.4844 299.228 78.1084 299.228 93.5371C299.228 98.5866 300.63 103.355 303.155 107.563H259.11C238.912 107.563 222.642 123.834 222.642 144.032V329.462C222.642 349.66 238.912 365.93 259.11 365.93H395.732C415.93 365.93 432.2 349.66 432.2 329.462V144.032C432.2 123.834 415.93 107.563 395.732 107.563H351.408C353.933 103.356 355.336 98.5866 355.336 93.5371C355.336 78.1084 342.712 65.4844 327.283 65.4844H327.28ZM327.28 82.316C333.452 82.316 338.502 87.3655 338.502 93.5371C338.502 99.7087 333.452 104.758 327.28 104.758C321.109 104.758 316.059 99.7087 316.059 93.5371C316.059 87.3655 321.109 82.316 327.28 82.316ZM259.108 124.395H272.575V141.227C272.575 143.19 273.417 145.435 275.1 147.118C276.783 148.801 278.747 149.643 280.991 149.643H373.568C378.337 149.643 381.984 145.996 381.984 141.227V124.395H395.452C406.392 124.395 415.089 133.091 415.089 144.032V329.462C415.089 340.402 406.393 349.099 395.452 349.099H259.113C248.172 349.099 239.476 340.403 239.476 329.462V144.032C239.476 133.092 248.172 124.395 259.113 124.395H259.108ZM282.394 169.56C278.674 169.56 275.105 171.038 272.475 173.668C269.845 176.298 268.367 179.865 268.367 183.587C268.367 187.306 269.845 190.873 272.475 193.503C275.105 196.135 278.674 197.613 282.394 197.613C286.113 197.613 289.682 196.135 292.312 193.503C294.942 190.873 296.42 187.306 296.42 183.587C296.42 179.865 294.942 176.298 292.312 173.668C289.682 171.038 286.113 169.56 282.394 169.56ZM330.083 175.171C325.314 175.171 321.667 178.818 321.667 183.587C321.667 188.356 325.314 192.002 330.083 192.002H380.578C385.347 192.002 388.994 188.356 388.994 183.587C388.994 178.818 385.347 175.171 380.578 175.171H330.083ZM282.394 233.242C278.674 233.242 275.105 234.72 272.475 237.35C269.845 239.98 268.367 243.549 268.367 247.269C268.367 250.988 269.845 254.555 272.475 257.187C275.105 259.817 278.674 261.295 282.394 261.295C286.113 261.295 289.682 259.817 292.312 257.187C294.942 254.555 296.42 250.988 296.42 247.269C296.42 243.549 294.942 239.98 292.312 237.35C289.682 234.72 286.113 233.242 282.394 233.242ZM330.083 238.289C325.314 238.289 321.667 241.936 321.667 246.705C321.667 251.474 325.314 255.121 330.083 255.121H380.578C385.347 255.121 388.994 251.474 388.994 246.705C388.994 241.936 385.347 238.289 380.578 238.289H330.083ZM304.891 281.535C302.206 281.568 299.576 282.86 297.823 285.139L282.113 308.985L272.295 296.361C269.49 292.714 264.158 291.867 260.511 294.672C256.863 297.478 256.025 302.81 258.83 306.457L275.381 328.621C277.064 330.865 279.589 331.985 282.394 331.985H282.675C285.48 331.985 288.005 330.302 289.688 328.057L311.849 294.672C314.374 290.745 313.25 285.698 309.603 282.893C308.13 281.946 306.502 281.515 304.891 281.535L304.891 281.535ZM330.083 301.407C325.314 301.407 321.667 305.054 321.667 309.823C321.667 314.592 325.314 318.239 330.083 318.239H380.578C385.347 318.239 388.994 314.592 388.994 309.823C388.994 305.054 385.347 301.407 380.578 301.407H330.083Z" fill="black"/>
</svg>
